{
  "accessors": [
    {
      "bufferView": 2,
      "componentType": 5126,
      "count": 509,
      "max": [
        2.178504228591919,
        7.272170066833496,
        2.322021484375
      ],
      "min": [
        -2.192065477371216,
        0.9982213973999023,
        -2.368040084838867
      ],
      "type": "VEC3"
    },
    {
      "bufferView": 2,
      "byteOffset": 6108,
      "componentType": 5126,
      "count": 509,
      "max": [
        0.9374578595161438,
        0.9999999403953552,
        0.8788698315620422
      ],
      "min": [
        -0.9352131485939026,
        -0.9999892711639404,
        -0.9538260102272034
      ],
      "type": "VEC3"
    },
    {
      "bufferView": 1,
      "componentType": 5126,
      "count": 509,
      "max": [
        1.0,
        1.0
      ],
      "min": [
        -8.940696716308594e-08,
        0.01000000536441803
      ],
      "type": "VEC2"
    },
    {
      "bufferView": 0,
      "componentType": 5125,
      "count": 897,
      "type": "SCALAR"
    },
    {
      "bufferView": 2,
      "byteOffset": 12216,
      "componentType": 5126,
      "count": 30,
      "max": [
        0.629235565662384,
        1.624038577079773,
        0.7138321399688721
      ],
      "min": [
        -0.62918621301651,
        0.006725199520587921,
        -0.7225843071937561
      ],
      "type": "VEC3"
    },
    {
      "bufferView": 2,
      "byteOffset": 12576,
      "componentType": 5126,
      "count": 30,
      "max": [
        0.9835276007652283,
        0.18046343326568604,
        0.8520447015762329
      ],
      "min": [
        -0.9835209846496582,
        -0.9999282956123352,
        -0.8540148735046387
      ],
      "type": "VEC3"
    },
    {
      "bufferView": 1,
      "byteOffset": 4072,
      "componentType": 5126,
      "count": 30,
      "max": [
        0.8984502553939819,
        0.42141568660736084
      ],
      "min": [
        0.6015497446060181,
        0.07858438789844513
      ],
      "type": "VEC2"
    },
    {
      "bufferView": 0,
      "byteOffset": 3588,
      "componentType": 5125,
      "count": 48,
      "type": "SCALAR"
    }
  ],
  "asset": {
    "extras": {
      "author": "Aathav (https://sketchfab.com/Aathav)",
      "license": "CC-BY-4.0 (http://creativecommons.org/licenses/by/4.0/)",
      "source": "https://sketchfab.com/3d-models/low-poly-coniferous-tree-16fbadc669454c26aa0927445b3c6ffd",
      "title": "Low poly Coniferous tree"
    },
    "generator": "Sketchfab-11.20.1",
    "version": "2.0"
  },
  "bufferViews": [
    {
      "buffer": 0,
      "byteLength": 3780,
      "name": "floatBufferViews",
      "target": 34963
    },
    {
      "buffer": 0,
      "byteLength": 4312,
      "byteOffset": 3780,
      "byteStride": 8,
      "name": "floatBufferViews",
      "target": 34962
    },
    {
      "buffer": 0,
      "byteLength": 12936,
      "byteOffset": 8092,
      "byteStride": 12,
      "name": "floatBufferViews",
      "target": 34962
    }
  ],
  "buffers": [
    {
      "byteLength": 21028,
      "uri": "scene.bin"
    }
  ],
  "materials": [
    {
      "doubleSided": true,
      "name": "Leaf",
      "pbrMetallicRoughness": {
        "baseColorFactor": [
          0.0,
          0.102239,
          0.0,
          1.0
        ],
        "metallicFactor": 0.0,
        "roughnessFactor": 0.856198
      }
    },
    {
      "doubleSided": true,
      "name": "Bark",
      "pbrMetallicRoughness": {
        "baseColorFactor": [
          0.12614786475491588,
          0.012695534987180589,
          0.0,
          1.0
        ],
        "metallicFactor": 0.0,
        "roughnessFactor": 0.483471
      }
    }
  ],
  "meshes": [
    {
      "name": "Object_0",
      "primitives": [
        {
          "attributes": {
            "NORMAL": 1,
            "POSITION": 0,
            "TEXCOORD_0": 2
          },
          "indices": 3,
          "material": 0,
          "mode": 4
        }
      ]
    },
    {
      "name": "Object_1",
      "primitives": [
        {
          "attributes": {
            "NORMAL": 5,
            "POSITION": 4,
            "TEXCOORD_0": 6
          },
          "indices": 7,
          "material": 1,
          "mode": 4
        }
      ]
    }
  ],
  "nodes": [
    {
      "children": [
        1
      ],
      "matrix": [
        1.0,
        0.0,
        0.0,
        0.0,
        0.0,
        2.220446049250313e-16,
        -1.0,
        0.0,
        0.0,
        1.0,
        2.220446049250313e-16,
        0.0,
        0.0,
        0.0,
        0.0,
        1.0
      ],
      "name": "Sketchfab_model"
    },
    {
      "children": [
        2
      ],
      "name": "root"
    },
    {
      "children": [
        3
      ],
      "matrix": [
        1.0,
        0.0,
        0.0,
        0.0,
        0.0,
        2.220446049250313e-16,
        1.0,
        0.0,
        0.0,
        -1.0,
        2.220446049250313e-16,
        0.0,
        0.0,
        0.0,
        0.0,
        1.0
      ],
      "name": "GLTF_SceneRootNode"
    },
    {
      "children": [
        4,
        5
      ],
      "matrix": [
        0.9876304268836975,
        0.0,
        0.0,
        0.0,
        0.0,
        0.9876304268836975,
        0.0,
        0.0,
        0.0,
        0.0,
        0.9876304268836975,
        0.0,
        0.0,
        0.0,
        0.0,
        1.0
      ],
      "name": "Base_0"
    },
    {
      "mesh": 0,
      "name": "Object_4"
    },
    {
      "mesh": 1,
      "name": "Object_5"
    }
  ],
  "scene": 0,
  "scenes": [
    {
      "name": "Sketchfab_Scene",
      "nodes": [
        0
      ]
    }
  ]
}
